<svg width="50" height="50" viewBox="0 0 50 50" fill="none" xmlns="http://www.w3.org/2000/svg">
<path d="M24.9976 15.3691C22.4427 15.3691 19.9924 16.3841 18.1858 18.1907C16.3792 19.9973 15.3643 22.4476 15.3643 25.0025C15.3643 27.5574 16.3792 30.0077 18.1858 31.8143C19.9924 33.6209 22.4427 34.6358 24.9976 34.6358C27.5525 34.6358 30.0028 33.6209 31.8094 31.8143C33.616 30.0077 34.6309 27.5574 34.6309 25.0025C34.6309 22.4476 33.616 19.9973 31.8094 18.1907C30.0028 16.3841 27.5525 15.3691 24.9976 15.3691ZM24.9976 31.2587C23.3378 31.2587 21.7459 30.5994 20.5723 29.4257C19.3986 28.252 18.7393 26.6602 18.7393 25.0004C18.7393 23.3406 19.3986 21.7487 20.5723 20.5751C21.7459 19.4014 23.3378 18.7421 24.9976 18.7421C26.6574 18.7421 28.2492 19.4014 29.4229 20.5751C30.5966 21.7487 31.2559 23.3406 31.2559 25.0004C31.2559 26.6602 30.5966 28.252 29.4229 29.4257C28.2492 30.5994 26.6574 31.2587 24.9976 31.2587Z" fill="#F1F3F5"/>
<path d="M35.0124 17.2602C36.2528 17.2602 37.2583 16.2547 37.2583 15.0144C37.2583 13.774 36.2528 12.7686 35.0124 12.7686C33.7721 12.7686 32.7666 13.774 32.7666 15.0144C32.7666 16.2547 33.7721 17.2602 35.0124 17.2602Z" fill="#F1F3F5"/>
<path d="M42.7768 12.7316C42.2945 11.4861 41.5575 10.3551 40.6129 9.41086C39.6684 8.46665 38.537 7.73006 37.2914 7.24824C35.8338 6.70107 34.2939 6.4052 32.7372 6.37324C30.731 6.28574 30.0956 6.26074 25.0081 6.26074C19.9206 6.26074 19.2685 6.26074 17.2789 6.37324C15.7235 6.40357 14.1847 6.6995 12.7289 7.24824C11.4829 7.72949 10.3513 8.46589 9.40669 9.41018C8.46204 10.3545 7.72522 11.4858 7.24349 12.7316C6.69621 14.1891 6.40102 15.7292 6.37057 17.2857C6.28099 19.2899 6.25391 19.9253 6.25391 25.0149C6.25391 30.1024 6.25391 30.7503 6.37057 32.7441C6.40182 34.3024 6.69557 35.8399 7.24349 37.3003C7.72657 38.5457 8.46411 39.6765 9.40898 40.6207C10.3539 41.5648 11.4853 42.3015 12.731 42.7837C14.184 43.3528 15.7234 43.6699 17.2831 43.7212C19.2893 43.8087 19.9247 43.8357 25.0122 43.8357C30.0997 43.8357 30.7518 43.8357 32.7414 43.7212C34.2979 43.6895 35.8377 43.3944 37.2956 42.8482C38.5409 42.3653 39.6719 41.6281 40.6163 40.6836C41.5608 39.7391 42.298 38.6081 42.781 37.3628C43.3289 35.9045 43.6227 34.367 43.6539 32.8087C43.7435 30.8045 43.7706 30.1691 43.7706 25.0795C43.7706 19.9899 43.7706 19.3441 43.6539 17.3503C43.6297 15.7717 43.3329 14.2092 42.7768 12.7316ZM40.2393 32.5899C40.2259 33.7905 40.0067 34.98 39.5914 36.1066C39.2785 36.9167 38.7996 37.6524 38.1853 38.2663C37.571 38.8802 36.8351 39.3588 36.0247 39.6712C34.9106 40.0846 33.7338 40.3037 32.5456 40.3191C30.5664 40.4107 30.0081 40.4337 24.9331 40.4337C19.8539 40.4337 19.3352 40.4337 17.3185 40.3191C16.1308 40.3045 14.9546 40.0854 13.8414 39.6712C13.0283 39.3607 12.2893 38.883 11.6724 38.269C11.0555 37.655 10.5744 36.9183 10.2602 36.1066C9.85067 34.9921 9.63164 33.8167 9.61224 32.6295C9.52266 30.6503 9.50182 30.092 9.50182 25.017C9.50182 19.9399 9.50182 19.4212 9.61224 17.4024C9.62571 16.2025 9.84485 15.0137 10.2602 13.8878C10.8956 12.2441 12.1977 10.9503 13.8414 10.3212C14.9551 9.90895 16.131 9.68983 17.3185 9.67324C19.2997 9.58366 19.856 9.55866 24.9331 9.55866C30.0102 9.55866 30.531 9.55866 32.5456 9.67324C33.7339 9.68754 34.9109 9.90672 36.0247 10.3212C36.835 10.6342 37.5709 11.1132 38.1851 11.7275C38.7993 12.3417 39.2783 13.0776 39.5914 13.8878C40.0009 15.0023 40.2199 16.1777 40.2393 17.3649C40.3289 19.3462 40.3518 19.9024 40.3518 24.9795C40.3518 30.0545 40.3518 30.6003 40.2622 32.592H40.2393V32.5899Z" fill="#F1F3F5"/>
</svg>
